<svg xmlns="http://www.w3.org/2000/svg" xml:space="preserve" id="Layer_1" x="0" y="0"
    style="enable-background:new 0 0 984.7 405.6" version="1.1" viewBox="0 0 984.7 405.6">
    <style>
        .st0 {
            fill: #30499f
        }

        .st1 {
            fill: #a9dde0
        }

        .st2 {
            fill: #2589ca
        }

        .st3 {
            fill: #3653a4
        }
    </style>
    <path
        d="M541.5 149.9H516v-80h-34.5V47.1H576v22.8h-34.5zM622.5 120.4h-10.7v29.5h-25.4V47.1c10.6-.4 27.2-.9 41.3-.9 26.6 0 43.2 12.7 43.2 36.6 0 13.8-6.6 24.8-17.8 31.1l24.6 36h-30.2l-18.9-29.5h-6.1zm5.6-21.5c10.4 0 17.4-6.5 17.4-15.9 0-10.3-7-15-18.4-15-4.7 0-10.1.2-15.3.2v30.7h16.3zM781.7 103.5c0 30.5-18.6 48.7-48.2 48.7-29.5 0-47.9-18.1-47.9-48.7V47.1h25.7v56.4c0 15.7 8.6 24.8 22.2 24.8s22.5-9.1 22.5-24.8V47.1h25.7v56.4zM875.7 74.6c-14.4-4.4-27.2-6.8-36-6.8-8.9 0-14.4 2.7-14.4 9.1 0 6.9 8.3 8.2 22.8 11.2 21.2 4.5 35.2 11.2 35.2 31 0 21.9-17.1 33.1-42.9 33.1-13.2 0-29.8-2.9-45.8-8.9l5.7-22.5c16.5 6.2 29.9 8.6 39 8.8 10.9.2 16.6-2.9 16.6-8.8 0-8.3-11.6-9.7-24.6-12.4-23-4.8-33.7-12.2-33.7-30.2 0-20.3 16.2-32.5 41.9-32.5 14.2 0 30.8 3.2 41.6 7l-5.4 21.9zM949.3 149.9h-25.6v-80h-34.4V47.1h94.4v22.8h-34.4zM588.6 234.7c0 32.2-22.1 53.7-54.1 53.7s-54-21.5-54-53.7 21.9-53.7 54-53.7c32 0 54.1 21.5 54.1 53.7m-11.2 0c0-26.1-17.5-43.5-42.9-43.5-25.2 0-42.8 17.4-42.8 43.5s17.5 43.7 42.8 43.7c25.4 0 42.9-17.6 42.9-43.7M632.6 286.1l-32.7-69.9h11.5l26.8 57.8 26.6-57.8h11.3l-32.5 69.9zM750.9 247.1c0 3.5-.2 4.7-.6 8h-58.2c1.7 14.4 11.6 23.9 27.1 23.9 8.9 0 16.2-1.5 25.7-3.9l1.7 8.5c-9.1 2.7-16.9 4.8-27.7 4.8-23.9 0-37.8-15.6-37.8-37.3 0-22.4 15.1-37 36.3-37 19.6-.1 33.4 12.6 33.5 33m-59.1-.2h49.6c-.2-15.3-9.7-24.5-23.7-24.5-15 0-24.7 9.7-25.9 24.5M807.6 224.7c-10.1 0-18.3.3-28.6 1.5v59.9h-10.4v-67.9c12.7-2.3 25.8-3.6 39-3.6v10.1zM854.9 183.3h25.5v102.8h-25.5zM984.7 220c0 23.4-17.5 38.2-44.7 38.2h-14.2V286h-25.4V183.3c12.1-.6 25.5-1.2 39.6-1.2 27.2 0 44.7 13.9 44.7 37.9m-43.2 16c10.4 0 17.8-5.9 17.8-15.9 0-10.3-7.4-15.9-17.8-15.9-5.3 0-10.6.2-15.7.3V236h15.7zM515.1 340.7v11.6h-21.6v17.4h-12.7v-51.4h37.7v11.3h-25v11.1zM577.9 344c0 16.1-11.3 26.8-27.6 26.8s-27.6-10.7-27.6-26.8 11.3-26.8 27.6-26.8c16.2 0 27.6 10.7 27.6 26.8m-13.2 0c0-9.1-6-15-14.4-15s-14.4 6-14.4 15c0 9.1 6 15.1 14.4 15.1s14.4-6 14.4-15.1M633 346.5c0 15.3-9.3 24.3-24.1 24.3-14.7 0-24-9.1-24-24.3v-28.2h12.8v28.2c0 7.9 4.3 12.4 11.1 12.4s11.3-4.5 11.3-12.4v-28.2H633v28.2zM690 369.7h-11.6l-23.9-29.8v29.8h-12.7v-51.4h11.7l23.8 30.1v-30.1H690zM747.2 343.9c0 16.2-11.3 26.4-26.7 26.4-7.6 0-14.8-.3-20.4-.6v-51.4c5.6-.3 12-.6 19.1-.6 16.7 0 28 10.1 28 26.2m-13.1 0c0-9-5.9-14.7-14.3-14.7-2.2 0-4.6 0-7 .2v29.5c2.6.2 5.4.2 8 .2 7.4-.2 13.3-6.1 13.3-15.2M761.6 369.7h-13.9l22.9-51.7h11.9l22.8 51.7h-13.8l-3.6-8.5h-22.8l-3.5 8.5zm7.9-19.3h14.1l-7.1-17.2-7 17.2zM830.4 369.7h-12.8v-40h-17.2v-11.4h47.2v11.4h-17.2zM852.7 318.3h12.8v51.4h-12.8zM928.4 344c0 16.1-11.3 26.8-27.6 26.8s-27.6-10.7-27.6-26.8 11.3-26.8 27.6-26.8 27.6 10.7 27.6 26.8m-13.1 0c0-9.1-6-15-14.4-15s-14.4 6-14.4 15c0 9.1 6 15.1 14.4 15.1 8.3 0 14.4-6 14.4-15.1M984.5 369.7h-11.7L949 339.9v29.8h-12.7v-51.4H948l23.8 30.1v-30.1h12.7z"
        class="st0" />
    <path
        d="M272 10.3c13.6-7.8 25.9-8.5 34.7-3.1l98.6 57.4c.2.1.3.2.5.3-8.8-5.2-21.1-4.6-34.6 3.2l-177 101.8L20.5 68.8c-27.3-15.8-27.3-41.3 0-57C47.8-4 92-3.9 119.3 11.8l75.6 43.1L272 10.3"
        class="st1" />
    <path
        d="M99.5 57.4c-16.4 9.4-42.9 9.4-59.3 0-16.4-9.5-16.4-24.8 0-34.2 16.4-9.4 42.9-9.4 59.3 0 16.4 9.5 16.4 24.8 0 34.2"
        class="st2" />
    <path
        d="M295.2 312.1c0 15.8-5.5 27-14.3 32.2l-100.8 57.9s-.1 0-.1.1c8.8-5.3 14.3-16.4 14.3-32.2V169.9l177-101.8c27-15.6 48.9-2.6 48.9 29s-21.9 69.9-48.9 85.5l-76.1 43.9v85.6z"
        class="st3" />
    <path
        d="M341.9 142.3c0 19 13.1 26.8 29.3 17.4 16.2-9.4 29.3-32.3 29.3-51.3S387.4 81.6 371.2 91c-16.1 9.3-29.3 32.3-29.3 51.3"
        class="st1" />
    <path
        d="M96.5 313.5c0 31.6 21.9 69.9 48.9 85.5 27 15.6 48.9 2.6 48.9-29V169.9L20.5 68.8C6.8 61 0 50.6 0 40.3V156c0 10.3 6.8 20.6 20.5 28.5l76 43.8v85.2z"
        class="st2" />
    <path
        d="M174.7 358.7c0 19-13.1 26.8-29.3 17.4-16.2-9.4-29.3-32.3-29.3-51.3s13.1-26.8 29.3-17.4c16.2 9.3 29.3 32.3 29.3 51.3"
        class="st3" />
</svg>