<?xml version="1.0" standalone="no"?>
<!DOCTYPE svg PUBLIC "-//W3C//DTD SVG 20010904//EN"
 "http://www.w3.org/TR/2001/REC-SVG-20010904/DTD/svg10.dtd">
<svg version="1.0" xmlns="http://www.w3.org/2000/svg"
 width="208.000000pt" height="128.000000pt" viewBox="0 0 208.000000 128.000000"
 preserveAspectRatio="xMidYMid meet">

<g transform="translate(0.000000,128.000000) scale(0.100000,-0.100000)"
fill="#000000" stroke="none">
<path d="M83 1259 c-30 -15 -48 -33 -62 -63 -20 -41 -21 -59 -21 -556 0 -498
1 -515 21 -556 15 -31 32 -48 63 -63 42 -21 54 -21 956 -21 902 0 914 0 956
21 31 15 48 32 63 63 20 41 21 58 21 556 0 498 -1 515 -21 556 -15 31 -32 48
-63 63 -42 21 -54 21 -957 21 -905 0 -914 0 -956 -21z m1879 -96 c17 -15 18
-45 18 -521 0 -456 -2 -507 -17 -524 -15 -17 -57 -18 -921 -18 -828 0 -907 1
-924 17 -17 15 -18 45 -18 521 0 456 2 507 17 524 15 17 57 18 921 18 828 0
907 -1 924 -17z"/>
<path d="M1239 847 l-166 -182 108 -3 109 -3 0 -194 0 -195 115 0 115 0 0 195
0 194 109 3 109 3 -96 105 c-54 58 -129 140 -167 183 l-70 77 -166 -183z"/>
<path d="M525 1011 c-58 -15 -115 -52 -140 -90 -31 -47 -42 -124 -25 -177 28
-85 79 -128 204 -168 98 -32 133 -51 141 -76 10 -31 -18 -67 -59 -74 -46 -9
-158 10 -228 38 l-58 24 0 -84 c0 -83 1 -85 28 -95 108 -41 324 -50 402 -16
91 40 134 106 135 207 0 120 -62 184 -235 241 -105 35 -130 51 -130 84 0 50
117 60 248 22 l81 -24 3 76 c2 42 3 77 2 79 -13 25 -303 51 -369 33z"/>
</g>
</svg>
